<svg xmlns="http://www.w3.org/2000/svg" width="24" height="32" viewBox="0 0 24 32">
  <defs>
    <style>
      .cls-1 {
        fill: none;
        stroke-linecap: round;
      }

      .cls-2, .cls-3 {
        stroke: none;
      }

      .cls-3 {
        fill: #fff;
      }
    </style>
  </defs>
  <g id="readmore_icon" transform="translate(-2796.795 -395)">
    <g id="Subtraction_3" data-name="Subtraction 3" class="cls-1" transform="translate(2796.795 395)">
      <path class="cls-2" d="M12.414,32H0V0H24V20.513L12.414,32Z"/>
      <path class="cls-3" d="M 11.59069728851318 29.99975967407227 L 22 19.6790714263916 L 22 1.999999046325684 L 2 1.999999046325684 L 2 29.99975967407227 L 11.59069728851318 29.99975967407227 M 12.41388034820557 32 L 12.41413021087646 31.99975967407227 L -1.77635683940025e-15 31.99975967407227 L -1.77635683940025e-15 -9.5367431640625e-07 L 24 -9.5367431640625e-07 L 24 20.51251983642578 L 12.41413021087646 31.99975967407227 L 12.41388034820557 32 Z"/>
    </g>
    <g id="Path_38" data-name="Path 38" class="cls-1" transform="translate(2820.795 427) rotate(180)">
      <path class="cls-2" d="M11.847,0V11.847H0Z"/>
      <path class="cls-3" d="M 9.846644401550293 4.828424453735352 L 4.828424453735352 9.846644401550293 L 9.846644401550293 9.846644401550293 L 9.846644401550293 4.828424453735352 M 11.84664440155029 4.76837158203125e-06 L 11.84664440155029 11.84664440155029 L 4.76837158203125e-06 11.84664440155029 L 11.84664440155029 4.76837158203125e-06 Z"/>
    </g>
  </g>
</svg>
