<svg xmlns="http://www.w3.org/2000/svg" width="32" height="32" viewBox="0 0 32 32">
    <defs>
        <style>
            .cls-1{fill:#fff}
        </style>
    </defs>
    <g id="logo" transform="translate(-12 -14)">
        <g id="Group_312" transform="translate(-839.592 -254.845)">
            <path id="Path_93" d="M858.476 282.966v2.276a1.336 1.336 0 1 0 2.672 0v-1.824h-1.334a2.165 2.165 0 0 1-1.338-.452z" class="cls-1" transform="translate(3.884 14.121)"/>
            <path id="Path_94" d="M866.679 282.163c-.244.178-.5.348-.76.506a10.041 10.041 0 0 1-1.662.806l3.668 3.666a1.319 1.319 0 0 0 1.866-1.866z" class="cls-1" transform="translate(9.665 13.318)"/>
            <path id="Path_95" d="M859.9 280.289a1.34 1.34 0 0 0-1.382-.692l-2.006-3.778 6.26-.682 5.308-6.292-8.184.88-5.308 6.29.964-.094 2.176 4.1a1.335 1.335 0 0 0 1.046 2.24l.39 2.318.882-.148-.248-1.468 1.08 1.026.616-.648-1.7-1.622a1.339 1.339 0 0 0 .106-1.43z" class="cls-1"/>
            <path id="Path_96" d="M861.07 274.076l-4.318.462.55 1.032c.6 1.128 2.578 1.164 4.606.086s3.108-2.74 2.508-3.866l-.548-1.032z" class="cls-1" transform="translate(2.16 1.913)"/>
            <path id="Path_97" d="M874.794 287.64a10.876 10.876 0 0 0-.028-9.846 9.791 9.791 0 0 0-3.432-3.768 10.707 10.707 0 0 0-5.672-1.454h-2.614a7.14 7.14 0 0 1-2.45 2.048 7.908 7.908 0 0 1-2.122.772v16.2a1.342 1.342 0 0 0 1.338 1.338h5.848a10.582 10.582 0 0 0 5.584-1.424 9.12 9.12 0 0 0 3.548-3.866zm-4.894 1.56l-2.39-2.4a1.319 1.319 0 1 0-1.866 1.866l1.56 1.562a9.932 9.932 0 0 1-1.862.17h-3.81a.308.308 0 0 1-.35-.348v-14.6a.31.31 0 0 1 .35-.35h3.81a8.827 8.827 0 0 1 4.158.946 6.73 6.73 0 0 1 2.792 2.69 8.637 8.637 0 0 1 .016 8 6.748 6.748 0 0 1-2.408 2.464z" class="cls-1" transform="translate(3.884 3.727)"/>
        </g>
        <g id="Rectangle_239" fill="none" stroke="#707070">
            <path stroke="none" d="M0 0H32V32H0z" transform="translate(12 14)"/>
            <path d="M0.5 0.5H31.5V31.5H0.5z" transform="translate(12 14)"/>
        </g>
    </g>
</svg>
