<svg xmlns="http://www.w3.org/2000/svg" width="239.755" height="225.726" viewBox="0 0 239.755 225.726">
    <g>
        <path fill="#434949" d="M610.3 439.394c-.65 0-1.314-.029-1.974-.089-4.308-.383-9.439-3.12-11.549-4.849a17.47 17.47 0 0 1-5.711-9.182 39.514 39.514 0 0 1-1.16-9.522v-.127a16.974 16.974 0 0 1-10.329-3.332l-5.2-3.875.018-11.122q-3.552.2-7.1.2-1.209 0-2.417-.022a16.56 16.56 0 0 1-14.749-8.92c-4.161-8.108-.874-17.963 1.96-24.669a92.2 92.2 0 0 1 7.617-14.389c4.52-6.552 9.5-10.975 15.217-13.522a26.789 26.789 0 0 1 10.809-2.3 23.4 23.4 0 0 1 15.854 5.931 32.909 32.909 0 0 1 6.586 9.072l.269.49c10.1.99 13.783 7.792 15.094 11.96a19.4 19.4 0 0 1 .59 2.419l5.647-1.035 4.574 7.755c4.472 7.581 1.536 14.9-.054 18.432.155.13.328.272.522.426.76.156 1.9.34 2.8.483 5.635.9 14.142 2.266 21.615 8.383.157.11.316.2.465.3 8.916 5.652 8.713 13.161 7.794 17.145a23.909 23.909 0 0 1-6.882 14.9c-5.746 5.724-14.254 8.673-26.01 9.014q-.405.012-.8.012a26.257 26.257 0 0 1-12.372-3.108 21.452 21.452 0 0 1-11.113 3.145z" opacity="0.3" transform="translate(-488.15 -273.668)"/>
        <path fill="#ddbb98" d="M570.312 356.813c2.566-3.72 5.72-7.226 9.848-9.064s9.4-1.663 12.735 1.381c4.218 3.844 5.182 11.609 10.791 12.658 2.8.524 6.253-.9 7.542 3.2a7.572 7.572 0 0 1 .316 2.279c-.012 5.851 6.067 10.575 11.69 9.543 2.013 3.412-1.735 7.306-2.423 11.207-.942 5.343 3.116 9.132 7.486 12.348 4.16 2.737 14.989 1.2 22.8 7.634 2.127 1.753 4.574 2.175 3.741 4.8-.6 1.89 1.122 13.023-20.629 13.655-5.943.172-8.536-3.319-11.493-3.825-5.943-1.016-7.24 4.367-13.245 3.831a14.236 14.236 0 0 1-4.525-1.981 4.913 4.913 0 0 1-1.44-2.593c-1-3.673-.474-7.588-1.062-11.349s-2.918-7.788-6.7-8.25c-2.871-.35-6.155 1.391-8.473-.337l.03-19.076a117.431 117.431 0 0 1-22.2 1.7c-10.532-.193 2.329-23.583 5.211-27.761z" transform="translate(-488.15 -273.668)"/>
    </g>
</svg>
