<svg xmlns="http://www.w3.org/2000/svg" width="334.386" height="432.195" viewBox="0 0 334.386 432.195">
    <g>
        <path fill="#434949" d="M104.558 550.869a17.943 17.943 0 0 1-7.685-1.734c-8-3.761-12.246-12.975-10.313-22.408a35.41 35.41 0 0 1 3.751-9.6c.362-.692.7-1.346.964-1.9 3.2-6.828.986-16.185-4.928-20.86l-21.173-16.733 25.106-5.682a3.4 3.4 0 0 0 .145-.36 30.65 30.65 0 0 0 .882-6.818c.05-.779.1-1.557.159-2.333 1.2-15.891 6.587-27.67 16.007-35.009a41.345 41.345 0 0 1 3.479-2.417 20.735 20.735 0 0 1-13.876-11.589c-5.58-12.785 4.015-22.762 8.626-27.557.84-.872 1.633-1.7 2.24-2.4a5.061 5.061 0 0 0 1.414-3.063 21.951 21.951 0 0 0-2.047-3.674c-.862-1.371-1.838-2.926-2.75-4.692a38.875 38.875 0 0 1 7.654-45.228 24.6 24.6 0 0 1 11.221-6.015c.085-.562.152-1.238.235-2.107.4-4.141 1.06-11.073 7.357-17.646 4-4.171 9.614-6.711 16.008-9.37.664-.276 1.285-.534 1.839-.773 3.884-1.678 7.908-6.236 11.331-12.835 2.62-5.049 4.418-13.64 4.374-20.892-.053-8.51 7.51-13.457 10.74-15.57a17.963 17.963 0 0 1 9.856-2.934 16.537 16.537 0 0 1 15.751 10.745 35.651 35.651 0 0 1 1.708 9.8c.034.467.074 1 .113 1.447.165.2.357.438.517.633 2.035 2.465 5.823 7.052 6.052 14.406.166 5.3-2.044 9.931-4.181 14.412-1 2.092-2.856 5.988-2.881 7.409a1.338 1.338 0 0 0 .467.743c1.065.586 2.1 1.228 3.106 1.85.955.593 2.491 1.545 3.294 1.914a52.477 52.477 0 0 0 6.968.413c2.38 0 4.78-.108 7.321-.222 2.713-.122 5.518-.248 8.477-.248a77.3 77.3 0 0 1 11.212.756c6.1.886 13.08 4.652 16.982 7.776 8.449 6.764 14.66 19.555 10.184 30.913-2.3 5.835-6.738 9.788-10.3 12.964a32.874 32.874 0 0 0-3.443 3.329c-1.793 2.849-2.092 4.645-2.058 5.117.067.181.147.361.222.543a21.837 21.837 0 0 1 1.887 7.4c.549 9.765-5.63 16.03-9.718 20.176-.856.867-2.03 2.058-2.746 2.937 1.9 2.186 6.922 5.527 9.5 7.241 2.483 1.652 4.828 3.211 6.9 4.887 14.032 11.375 17.244 19.089 18.439 23.9 3.2 12.905-6.658 22.674-13.185 29.138a51.334 51.334 0 0 0-5.018 5.393 43.653 43.653 0 0 0-3.007 5.487c-2.586 5.3-6.129 12.546-15.6 17.231-6.662 3.294-13.939 4.933-20.36 6.378q-1.292.291-2.551.579c-12.2 2.815-15.261 5.547-19.142 9.007a44.89 44.89 0 0 1-17.54 10.463 41.812 41.812 0 0 1-13.279 2.031 86.837 86.837 0 0 1-13.368-1.3 59.758 59.758 0 0 0-8.166-.9 12.974 12.974 0 0 0-1.308.06c-8.663.883-10.9 4.282-18.1 17.138-.856 1.53-1.741 3.111-2.674 4.736-2.215 3.837-8.919 15.517-21.091 15.517z" opacity="0.3" transform="translate(-5.174 -178.674)"/>
        <path fill="#fcf7ce" d="M243.693 371.5c-.088-1.57-.91-2.989-1.43-4.473-1.885-5.389.315-11.369 3.356-16.2s10.556-8.817 12.649-14.129-1.789-12.552-6.246-16.121c-2.609-2.088-7.471-4.6-10.778-5.081-12.211-1.775-22.3 1-34.512-.774-3.258-.473-7.336-3.564-10.222-5.149a14.072 14.072 0 0 1-7.146-11.706c-.217-7.852 7.217-16.85 7.064-21.756-.177-5.638-5.469-7.1-6.337-12.671-.412-2.639-.334-7.039-1.26-9.545s-4.219-2.954-6.454-1.492c-1.157.757-4.914 3.32-4.906 4.7.051 8.329-1.872 19.3-5.821 26.909s-9.79 15.332-17.664 18.734c-3.857 1.666-10.742 4.192-13.649 7.226-5.616 5.861-2.307 11.181-5.888 18.466-2.964 6.032-8.487 3.114-13.364 7.738a26.028 26.028 0 0 0-5.069 29.957c1.944 3.766 4.86 7.108 5.866 11.225 1.248 5.1-.76 10.6-4.2 14.571-4.323 4.98-11.424 10.3-8.786 16.342 1.621 3.713 6.294 4.984 10.344 4.884s8.185-1.091 12.09-.015a3.9 3.9 0 0 1 2.22 1.307 4.3 4.3 0 0 1 .223 3.563 25.052 25.052 0 0 1-9.447 13.9c-2.857 2.076-6.139 3.529-8.926 5.7-7.609 5.928-10.347 16.192-11.074 25.811-.313 4.138-.355 8.365-1.68 12.3s-4.253 7.625-8.3 8.54c10.566 8.351 14.321 24.247 8.611 36.443-1.334 2.849-3.131 5.539-3.762 8.62s.32 6.813 3.166 8.151c4.948 2.324 9.376-3.793 12.1-8.534 8.76-15.261 13.138-26.5 30.645-28.282 9.983-1.017 21.654 4.564 33.395.7 15.963-5.26 11.363-13.682 37.819-19.786 6.6-1.523 14.021-2.95 20.094-5.952 8.207-4.058 8.515-10.844 13.666-18.414 4.942-7.264 18.466-15.641 16.349-24.168-1.563-6.295-9.007-12.91-14.045-16.994-6.176-5.006-19.645-11.387-21.354-19.927-2.282-11.388 13.17-15.68 12.663-24.618z" transform="translate(-5.174 -178.674)"/>
    </g>
</svg>
