<svg xmlns="http://www.w3.org/2000/svg" width="332.547" height="281.403" viewBox="0 0 332.547 281.403">
    <g>
        <path fill="#434949" d="M1299.272 264.531c-4.3 0-8.446-1.458-12.688-4.458a39.633 39.633 0 0 1-4.5-3.985c-.549-.533-1.39-1.348-1.922-1.834a45.491 45.491 0 0 0-4.321-1.863 10.08 10.08 0 0 0-2.6.731 28.21 28.21 0 0 1-10.782 2.086 43.944 43.944 0 0 1-6.245-.49c-.406.008-.871.015-1.376.015a28.45 28.45 0 0 1-10.465-1.7 39.43 39.43 0 0 1-12.627-8.613l-.164-.159c-3.249-3.049-5-4.78-8.519-8.412-.924-.954-1.828-1.92-2.732-2.888a54.647 54.647 0 0 0-7.5-7.129 64.265 64.265 0 0 0-6.6-3.983c-1.027-.568-2.053-1.136-3.07-1.72a117.307 117.307 0 0 1-21.841-16.171 23.932 23.932 0 0 1-4.768-5.8 16.29 16.29 0 0 1-1.882-5.674 25.3 25.3 0 0 0-3.052-2.971c-2.378-1.993-5.182-3.916-8.15-5.952-1.073-.736-2.145-1.472-3.207-2.216a106.11 106.11 0 0 1-16.618-13.931c-7.181-7.668-10.575-15-10.087-21.792a18.7 18.7 0 0 1 1.894-6.884 14.865 14.865 0 0 1 .208-3.666 14.212 14.212 0 0 1 1.834-4.849c-3.493-11.936 1.676-18.879 4.343-21.51 2.578-2.544 7.249-5.579 14.854-5.579a37.81 37.81 0 0 1 15.136 3.543 25.664 25.664 0 0 1 7.2 4.572 21.3 21.3 0 0 1 4.229 5.487 42.925 42.925 0 0 1 2.04 4.166 17.851 17.851 0 0 1 2.672-.2c4.459 0 8.823 1.573 13.27 3.726a14.082 14.082 0 0 1 8.613-4.933 15.009 15.009 0 0 1 10.367-3.98c7.032 0 14.653 4.465 19.043 8.289a44.375 44.375 0 0 1 9.166 11.131l11.089 5.276a29.573 29.573 0 0 1 6.46 3.934 14.032 14.032 0 0 1 2.418 2.595 20.219 20.219 0 0 1 5.209-.7 18.645 18.645 0 0 1 12.756 5.057c.736.674.908.674 1.418.674a23.62 23.62 0 0 0 3.154-.367 37.457 37.457 0 0 1 5.974-.586 18.332 18.332 0 0 1 14.537 6.577c6.815 8.11 8.145 18.3 9.116 25.741.136 1.043.3 2.289.466 3.364 1.982.93 4.2 1.921 5.149 2.291 6.616 2.573 15.062 9.413 18.4 17.507a17.484 17.484 0 0 1 .109 13.853c-2.726 6.15-8.079 8.642-13.047 9.921a13.373 13.373 0 0 1-3.043 8.333 17.734 17.734 0 0 1-1.639 13.51c-4.4 7.638-13.03 9.653-18.743 10.986-.766.179-1.513.352-2.21.534l-.493.133a22.484 22.484 0 0 1-6.233.963z" opacity="0.3" transform="translate(-1073.507 -43.128)"/>
        <path fill="#eab1b3" d="M1332.889 214.926c-1.19 2.685-6.135 2.964-11.853 4.045-3.226.61-3.337 2.278-4.01 4.859-.521 2 2.814 5.284 1.357 6.656-.592.557-5.28 1.893-5.819 2.49-1.274 1.412 2.692 5.876 3.476 8.439 2.11 6.9-7.215 7.954-13.3 9.545-2.64.689-4.49 1.568-8.707-1.414-1.335-.945-5.3-5.206-6.687-6.05-2.356-1.432-8.788-4.154-10.509-4.094-9.71.34-8.156 4.245-19.563 2.436-.778-.123-5.238.363-8.135-.789-4.347-1.728-7.876-5.389-8.719-6.18-3.068-2.88-4.635-4.422-8.093-7.992-3.769-3.892-7.166-8.015-11.9-11.465a114.969 114.969 0 0 0-10.849-6.467 104.694 104.694 0 0 1-19.405-14.362 12.719 12.719 0 0 1-2.337-2.664 5.724 5.724 0 0 1-.488-2.626c-.339-2.679-3.653-6.485-7.45-9.667s-8.1-5.946-12.237-8.845a94.929 94.929 0 0 1-14.609-12.186c-4.062-4.338-6.862-8.936-6.639-12.056.194-2.7 2.578-4.152 2.146-7.169a7.014 7.014 0 0 1-.224-1.963c.319-1.723 3.638-1.324 4.179-2.914.351-1.033-.533-2.7-1.245-4.228-2.4-5.156-2.95-9.845-.381-12.38s8.581-2.61 15.675.559a13.729 13.729 0 0 1 3.7 2.262 8.686 8.686 0 0 1 1.721 2.3 22.405 22.405 0 0 1 2.835 7.855 5.237 5.237 0 0 0 1.4 3.417c2.1 2.271 5.764 3.086 7.167 2.33s1.7-2.412 3.428-2.875c3.776-1.009 11.52 3.749 17.888 7.1a9.637 9.637 0 0 0 3.456 1.3 1.435 1.435 0 0 0 1.428-.95 12.691 12.691 0 0 0 1.263-6.5c-.051-1.088-.135-2.319 1.091-2.469 1.3-.16 3.628.988 4.98.88 1.983-.157.838-2.736 1.562-3.959 1.256-2.123 8.071.7 12.306 4.387s6.439 7.637 8.4 11.293l14.783 7.034a17.514 17.514 0 0 1 3.745 2.2c1.194.995 1.458 6.5 2.267 7.555 3.981 5.183 11.2-6.912 17.662-1 9.885 9.054 19.03-.733 23.921 5.086 8.176 9.728 4.541 27.537 10.076 30.552 2.156 1.174 7.747 3.746 9.851 4.564 5.557 2.163 13.244 9.952 11.396 14.12z" transform="translate(-1073.507 -43.128)"/>
    </g>
</svg>
