<svg xmlns="http://www.w3.org/2000/svg" width="327.549" height="358.692" viewBox="0 0 327.549 358.692">
    <g>
        <path fill="#434949" d="M934.3 411.448a36.551 36.551 0 0 1-11.547-1.9c-7.008-2.266-16.812-9.9-20.982-16.331-2.932-4.525-4.017-9.558-4.888-13.6a30.8 30.8 0 0 0-1.344-5.047c-.877-1.353-2.657-4.093-3.514-4.613a24.035 24.035 0 0 0-3.151-.8c-3.806-.815-9.017-1.93-13.745-5.91a28.174 28.174 0 0 1-6.823-9.063 81.844 81.844 0 0 1-8.928-33.347c-.145-3.044-.126-6.025-.107-8.908.046-7.1.089-13.81-2.492-17.8a9.15 9.15 0 0 0-4.577-3.6c-10.882-3.8-15.442-12.327-12.512-23.388.972-3.669 3.554-13.414 13.983-16.079a19.128 19.128 0 0 1 4.741-.583c.66 0 1.285.031 1.871.08q.225-.434.481-.893c4.057-7.234 12.174-11.728 21.182-11.728a26.515 26.515 0 0 1 4.414.369 31.714 31.714 0 0 1 8.876 2.945 39.6 39.6 0 0 1 9.421-5.533c6.764-2.737 13.614-2.967 19.505-2.967h1.213c7.417.023 18.627.059 28.064 6.7 5.681 4 7.265 8.869 7.593 12.249a15.814 15.814 0 0 1-.206 4.482 25.853 25.853 0 0 0 3.783-.442l13.191-2.36 1.85 13.272a23.943 23.943 0 0 1-2.745 14.72 19.474 19.474 0 0 1 8.724 11.007c2.775 9.238-2.491 19.56-11.989 23.5a26.392 26.392 0 0 1-10.286 1.909 54.545 54.545 0 0 1-5.883-.38c-1.113-.118-2.263-.24-3.167-.262a7.491 7.491 0 0 0 .142 3.607c.172.564.405 1.237.651 1.951 1.5 4.341 4.012 11.607.732 19.393-2.227 5.284-6.129 8.349-8.711 10.377-.276.217-.551.433-.821.651a25.485 25.485 0 0 0-3.3 3.2 35.647 35.647 0 0 1 24.52 29.992 15.78 15.78 0 0 1-3.161 11.657 15.523 15.523 0 0 1-7.484 5.107l-2.216 8.342-10.425-.52c-.32-.017-.626-.024-.922-.024-1.162 0-2.288.108-3.592.233-1.572.15-3.355.321-5.414.321z" opacity="0.3" transform="translate(-748.824 -142.756)"/>
        <path fill="#c6d2e3" d="M856.458 278.361a22.064 22.064 0 0 1 11.147 8.763c6.144 9.489 4.118 21.808 4.655 33.1a68.631 68.631 0 0 0 7.512 28.056 16.034 16.034 0 0 0 3.664 5.1c3.977 3.349 9.977 2.747 14.584 5.156 3.684 1.926 6.1 5.564 8.366 9.054 3.293 5.081 2.916 13.53 6.209 18.612 2.459 3.795 9.824 9.683 14.127 11.074 7.922 2.562 11.22.415 18.153.761a9.919 9.919 0 0 1 6.83-6.882 4.53 4.53 0 0 0 2.532-1.155 3.4 3.4 0 0 0 .443-2.454 22.487 22.487 0 0 0-17.143-19.321c-2.859-.619-6.057-.764-8.2-2.755-3.5-3.257-1.935-9.14.64-13.171a38.455 38.455 0 0 1 8.221-9.19c2.181-1.763 4.664-3.422 5.753-6.006 1.686-4-.571-8.431-1.835-12.584-2.2-7.239-.229-16.731 6.837-19.437 3.111-1.192 6.571-.835 9.885-.484s6.788.66 9.866-.617 5.541-4.688 4.582-7.879c-.724-2.408-3.081-3.935-5.405-4.894s-4.847-1.6-6.8-3.183-3.134-4.538-1.769-6.65c.745-1.152 2.049-1.785 3.161-2.589a11.136 11.136 0 0 0 4.414-10.343c-4.614.826-9.569 1.161-13.8-.845s-7.343-7.036-5.767-11.45a7.7 7.7 0 0 0 .891-3.19 4.478 4.478 0 0 0-2.181-2.951c-5.858-4.123-13.521-4.329-20.684-4.352-5.359-.017-10.873.012-15.841 2.022-5.093 2.061-9.145 6.015-13.056 9.873-3.594-2.992-7.622-5.742-12.233-6.524s-9.906.874-12.194 4.953c-1.738 3.1-2.139 6.284-5.883 7.637-3.132 1.133-6.29-.816-9.263-.056-3.072.786-3.96 4.053-4.712 6.889-1.242 4.661-.073 6.386 4.294 7.912z" transform="translate(-748.824 -142.756)"/>
    </g>
</svg>
