<svg xmlns="http://www.w3.org/2000/svg" width="264.828" height="250.031" viewBox="0 0 264.828 250.031">
    <g>
        <path fill="#434949" d="M1292.293 476.463a16.223 16.223 0 0 1-7.49-1.8l-2.424-1.245-1.712-2.12a15.362 15.362 0 0 1-1.386-2.026 16.934 16.934 0 0 1-5.2-3.963c-3.562-3.943-3.69-8.335-3.851-13.9l-.022-.737a23 23 0 0 0-.493-2.251 25.4 25.4 0 0 1-.312-13.217 18.094 18.094 0 0 1 .987-3.041 25.862 25.862 0 0 1-9.61-20.724c.276-5.8 1.166-12.03 5.766-18.255 4.046-5.476 8.882-8.162 12.489-10.107a27.348 27.348 0 0 1-2.495-6.864c-.836-3.59-1.565-8.925 1.754-13.77.86-1.256 4.039-5.485 8.779-7.105l4.423-1.51a27.3 27.3 0 0 1 8.833-1.368 45.256 45.256 0 0 1 8.7.934c.329.064.667.128 1.01.193 4.159.787 10.405 1.969 15.374 6.3a58.759 58.759 0 0 0 9.093 4.6 14.837 14.837 0 0 1 5.8-6 19.158 19.158 0 0 1 3.692-5.382c3.116-3.231 8.63-6.683 14.763-6.683a14.75 14.75 0 0 1 12.215 6.164l1.714 2.41c1.291 1.357 5.845 4.633 8.882 6.818 11.46 8.245 21.358 15.366 21.548 25.714.05 2.682-.035 4.9-.11 6.864-.168 4.418-.225 5.906 1.144 9.106a19.211 19.211 0 0 1 .577 12.951c-1.465 4.654-4.978 7.327-8.156 9.468a47.987 47.987 0 0 1-5.484 3.217 5.635 5.635 0 0 0-.6.314l-.042.443a35.849 35.849 0 0 1-4.9 15.9c-3.935 6.8-10.917 7.3-13.545 7.486-.373.027-.853.061-1.149.1-.379.39-1.537 1.809-2.876 5.663l-.027.079c-1.025 2.955-4.144 11.949-17.876 13.845a13.977 13.977 0 0 1-1.9.13 17.113 17.113 0 0 1-6.941-1.594c-.632.31-1.338.623-2.162.962q-.517.213-1.018.425c-3.022 1.272-6.784 2.856-11.518 2.856a20.443 20.443 0 0 1-9.744-2.478c-1.034-.554-2.613-1.452-4.284-2.4-.987-.561-1.949-1.109-2.658-1.5a4.069 4.069 0 0 0-1.224.358c-.345.173-1.382.858-2.068 1.311-3.477 2.293-8.226 5.429-14.266 5.429z" opacity="0.3" transform="translate(-1200.756 -286.432)"/>
        <path fill="#d2ecf6" d="M1362.339 362.7l-1.874-2.636c-1.733-2.438-8.88 1.618-8.747 5.264.049 1.368-.127 3-1.334 3.651-1 .537-2.283.122-3.338.546-2.005.8-1.779 3.692-1.145 5.758 3.594 11.728-25.009-2.1-28.855-5.582-2.583-2.337-6.972-2.959-10.493-3.648-3.418-.67-7.6-1.143-10.894-.017l-4.42 1.509a8.085 8.085 0 0 0-2.309 2.189c-.725 1.058.7 6.051 1.4 7.126 2.254 3.468 5.3 3.764 6.517 7.715a4 4 0 0 1-1.4 3.33c-.56.4-4.219 2.847-4.779 3.245-5.129 3.647-10.014 4.64-13.754 9.7-2.525 3.417-3.054 6.962-3.256 11.206-.152 3.2 1.9 8.568 5.708 10.614 3.727 2 4.288 4.856 5.113 9.006.487 2.448-1.951 3.955-2.5 6.389-1.133 4.987.415 6.256 1.072 11.327.1.78.073 6.69.6 7.273 2.99 3.309 4.192-1.265 5.695-.4 1.531.882-.229 4.968 1.356 6.93 3.489 1.792 8.681-3.419 12.537-5.19s8.582-2.252 12.308-.222c1.645.9 5.679 3.237 7.33 4.121 3.9 2.089 7.2.322 11.285-1.361 3.446-1.418 1.314-1.024 4.76-2.442a8.537 8.537 0 0 1 3.853-.259c1.012.527 4.405 2.51 5.535 2.354 5.979-.825 6.727-3.193 7.487-5.381 6.63-19.089 16.8-12.38 18.591-15.48 3.9-6.731 2.753-10.859 3.767-14.019 1.209-3.767 4.019-6.294 7.624-7.925 1.069-.484 6.3-3.686 6.655-4.8a6.4 6.4 0 0 0-.131-4.011c-3.422-8-1.911-12.108-2.071-20.8-.125-6.515-23.656-19.12-27.893-25.08z" transform="translate(-1200.756 -286.432)"/>
    </g>
</svg>
