<svg xmlns="http://www.w3.org/2000/svg" width="266.358" height="315" viewBox="0 0 266.358 315">
    <defs>
        <filter id="cbyuc9w9qa" width="266.358" height="244.439" x="0" y="35" filterUnits="userSpaceOnUse">
            <feOffset/>
            <feGaussianBlur result="blur" stdDeviation="15"/>
            <feFlood flood-opacity=".302"/>
            <feComposite in2="blur" operator="in"/>
            <feComposite in="SourceGraphic"/>
        </filter>
    </defs>
    <g>
        <path fill="none" d="M0 0H215V315H0z" transform="translate(-1293.538 -2236) translate(1319 2236)"/>
        <g filter="url(#cbyuc9w9qa)" transform="translate(-1293.538 -2236) translate(1293.54 2236)">
            <path fill="#d2ecf6" d="M1405.044 364.328l-2.776-3.905c-2.567-3.612-13.156 2.4-12.958 7.8.073 2.027-.188 4.451-1.976 5.409-1.483.8-3.383.181-4.945.809-2.97 1.193-2.636 5.47-1.7 8.531 5.325 17.375-37.051-3.117-42.749-8.27-3.827-3.462-10.329-4.384-15.546-5.4-5.064-.993-11.257-1.693-16.139-.025l-6.548 2.236c-.945.323-2.856 2.421-3.421 3.243-1.074 1.568 1.039 8.965 2.073 10.557 3.339 5.138 7.846 5.576 9.655 11.43.357 1.156-.658 3.926-2.074 4.933-.83.59-6.25 4.218-7.08 4.807-7.6 5.4-14.836 6.874-20.377 14.374-3.741 5.062-4.525 10.314-4.824 16.6-.225 4.733 2.816 12.694 8.457 15.725 5.522 2.967 6.353 7.194 7.575 13.342.721 3.627-2.89 5.859-3.71 9.465-1.678 7.388.615 9.268 1.588 16.781.149 1.156.108 9.911.889 10.775 4.43 4.9 6.211-1.874 8.437-.591 2.268 1.307-.339 7.36 2.009 10.267 5.169 2.655 12.861-5.065 18.574-7.689s12.714-3.336 18.234-.329c2.437 1.326 8.413 4.8 10.859 6.105 5.775 3.095 10.66.477 16.719-2.016 5.105-2.1 1.947-1.517 7.052-3.618.964-.4 4.784-.865 5.708-.384 1.5.781 6.526 3.719 8.2 3.487 8.858-1.222 9.966-4.73 11.092-7.972 9.822-28.281 24.883-18.341 27.543-22.934 5.772-9.972 4.079-16.088 5.581-20.769 1.791-5.581 5.954-9.325 11.295-11.741 1.584-.717 9.338-5.461 9.859-7.119a9.475 9.475 0 0 0-.194-5.942c-5.07-11.848-2.831-17.938-3.068-30.821-.175-9.65-35.037-28.324-41.314-37.151z" transform="translate(-1228.65 -279.33)"/>
        </g>
    </g>
</svg>
