<svg xmlns="http://www.w3.org/2000/svg" width="327.003" height="371.825" viewBox="0 0 327.003 371.825">
    <g>
        <path fill="#434949" d="M418.44 335a64.6 64.6 0 0 1-20.9-3.73 157.863 157.863 0 0 1-19.567-8.692c-3.784-1.9-7.358-3.685-10.962-5.241-3.884-1.676-7.085-3.278-9.91-4.692-7.024-3.514-10.55-5.279-18.293-5.445a23.514 23.514 0 0 1-14.512-5.854c-3.6-3.222-4.968-7.718-6.014-13.925a68.15 68.15 0 0 1-.989-9.112c.005-5.159-1.853-6.843-2.552-7.476a28.914 28.914 0 0 0-2.492-1.515 51.3 51.3 0 0 1-18.049-15.933c-4.963-6.949-2.267-14.237-.971-17.74.977-2.641 1.471-4.108 1.138-6.022-.349-2.009-2.017-6.408-9.267-13.3l-.105-.1c-5.339-5.072-10.889-12.837-6.389-28 1.351-4.548 4.731-7.788 9.121-11.22a28.338 28.338 0 0 1-.423-7.3c.023-.645.04-1.282.058-1.908.2-7.228.5-18.15 10.7-25.959 1.468-1.123 3.992-2.955 6.433-4.726 1.915-1.39 3.9-2.828 4.95-3.623 1.822-1.375 3.035-4.79 3.016-8.5a46.688 46.688 0 0 0-.674-5.357c-1.262-7.932-3.17-19.917 6.314-27.434l2.135-1.692 2.637-.684a17.326 17.326 0 0 1 4.343-.549c.381 0 .754.012 1.122.034a19.361 19.361 0 0 1 8.632-5.5 13.6 13.6 0 0 1 4.141-.637c3.521 0 6.872 1.25 13.68 4.1.669.28 1.239.523 1.631.678a43.841 43.841 0 0 0 5.066 1.129A34.274 34.274 0 0 1 378.1 96.1a24.738 24.738 0 0 1 5.825 6.537 17.424 17.424 0 0 0 3.117.476h.109a4.026 4.026 0 0 0 .519-.346c6.371-4.863 13.772-5.884 18.858-5.884a33.3 33.3 0 0 1 14.9 3.3c7.416 3.8 14.993 8.594 20.163 17.866 4.728 8.481 5.252 16.1 5.713 22.829a69.166 69.166 0 0 0 .944 8.569c.046.236.106.569.19 1.043a31.4 31.4 0 0 1 7.164-1.995 18.469 18.469 0 0 1 2.787-.2 44.913 44.913 0 0 1 9.036 1.116c4.38.985 9.808 2.776 12.93 7.932.424.7 4.116 7 3.54 12.942l-.753 7.756c-.685 7.055-3.82 14.293-9.866 22.777-.336.471-.676.955-1.023 1.447-3.8 5.4-9 12.8-17.114 16.325a28.259 28.259 0 0 1-11.484 2.271 60.037 60.037 0 0 1-10.609-1.193 40.934 40.934 0 0 0-6.335-.819 7.623 7.623 0 0 0-.907.048 42.092 42.092 0 0 0-7.8 2.187 82.79 82.79 0 0 1-8.989 2.7 47.44 47.44 0 0 1-10.3 1.126 48.828 48.828 0 0 1-6.648-.456 24.29 24.29 0 0 1-5.516 5.656c6.09.841 12.367 1.413 18.806 2 5.854.533 11.907 1.085 17.932 1.863 9.675 1.249 19.223 7.367 19.208 18.255a48.778 48.778 0 0 0 9.128 1.747l10.315.969 2.144 17.3a14.651 14.651 0 0 1-12.2 16.925l-16.047 3.124a29.319 29.319 0 0 1 6.837 5.811c5.246 6.15 7.041 13.592 4.925 20.42-2.2 7.088-8.428 12.646-16.667 14.868a47.983 47.983 0 0 1-12.49 1.6z" opacity="0.3" transform="translate(-216.955 -23.171)"/>
        <path fill="#d7bbaa" d="M432.861 306.471c-2.576-3.021-6.347-4.7-9.987-6.286L393.513 287.4l35.916-6.992 5.3-1.031 14.7-2.861a1.938 1.938 0 0 0 1.87-2.683l-.87-7.02a61.853 61.853 0 0 1-17.664-4.353c-2.113-.868-4.477-2.263-4.628-4.542-.126-1.892 1.388-3.554 1.471-5.448.158-3.6-4.384-5.247-7.96-5.709-20.3-2.62-41.191-2.59-60.556-9.209a5.4 5.4 0 0 1-2.446-1.37 4.1 4.1 0 0 1-.667-3.443c.756-3.975 4.535-6.661 8.319-8.094s7.9-2.069 11.394-4.108 6.3-6.164 5.061-10.016c-1.806.066-3.771.086-5.217-1s-1.755-3.723-.134-4.523a35.763 35.763 0 0 0 28.82 6.2c6.106-1.361 11.824-4.34 18.034-5.1 8.587-1.047 17.823 4.112 25.757.665 5.33-2.315 9.3-8.553 12.773-13.428 3.373-4.732 6.972-10.756 7.533-16.539l.753-7.756c.109-1.119-1.153-4.056-1.735-5.018-1.108-1.829-9.676-3.1-11.791-2.784-6.821 1.035-9.367 5.453-16.212 4.586-1.351-.171-3.72-2.5-4.094-4.422-.219-1.126-1.418-8.372-1.637-9.5-2.006-10.306-.15-18.411-5.263-27.581-3.452-6.191-8.472-9.438-14.781-12.67-4.749-2.433-14.328-3.016-20.06 1.358-5.611 4.282-10.332 3.169-17.206 1.562-4.055-.947-4.665-5.689-7.982-8.206-6.8-5.159-9.79-3.68-17.948-6.177-1.254-.383-10.213-4.5-11.463-4.1-7.088 2.262-.966 7.24-3.318 8.927-2.395 1.718-7.39-3.771-11.463-2.715-5.128 4.065-.788 15.545-.754 22.624s-2.493 14.59-8.144 18.853c-2.494 1.881-8.832 6.4-11.312 8.3-5.86 4.484-5.448 10.709-5.709 18.083-.22 6.213.65 2.7.43 8.914-.042 1.174-1.339 5.309-2.263 6.033-1.5 1.175-6.849 4.964-7.39 6.788-2.866 9.653.217 12.421 3.016 15.082 24.434 23.227 7.235 34.05 10.709 38.913 7.541 10.558 14.6 11.667 18.7 15.385 4.89 4.432 6.794 10.443 6.787 17.043 0 1.958 1.256 12.116 2.715 13.423a10.668 10.668 0 0 0 6.183 2.565c14.508.311 19.713 5.439 33.036 11.189 9.974 4.3 19.329 10.05 29.6 13.576 8.193 2.811 17.363 4.16 25.852 1.871 7.025-1.893 10.968-7.811 5.286-14.471z" transform="translate(-216.955 -23.171)"/>
    </g>
</svg>
