<svg xmlns="http://www.w3.org/2000/svg" width="292.223" height="275.394" viewBox="0 0 292.223 275.394">
    <g>
        <path fill="#434949" d="M489.077 615.672a20.121 20.121 0 0 1-5.1-.652 25.141 25.141 0 0 1-9.39-4.856l-3.481 1.324a19.267 19.267 0 0 1-7.006 1.44 15.983 15.983 0 0 1-3.295-.343 17.454 17.454 0 0 1-7.419-3.683h-.135a16.312 16.312 0 0 0-4.57.895c-.6.184-1.2.375-1.8.567-4 1.277-8.983 2.866-14.536 2.866a27.318 27.318 0 0 1-6.6-.793 18.138 18.138 0 0 1-4.233-1.681c-1.069.425-2.26.938-2.782 1.214a16.366 16.366 0 0 1-8.067 2.022c-11.628 0-26.769-11.555-27.861-25.042-.578-7.136 2.129-13.3 4.747-19.273.471-1.072.962-2.192 1.458-3.37l.017-.041c-.033-.367-.128-1-.226-1.615a18.073 18.073 0 0 1-3.818-12.614 28.756 28.756 0 0 1 1.314-5.693 22.205 22.205 0 0 1-2.837-4.03c-6.277-11.635-1.31-24.477 1.977-32.976.4-1.031.788-2.036 1.143-3l.266-.737c1.237-3.454 5-13.965 17.278-13.965.158 0 .317 0 .478.006a15.581 15.581 0 0 1 4.15.7c.479-1.221.822-2.38 1.209-3.688a38.592 38.592 0 0 1 8.3-15.865c2.193-3.69 4.9-7.816 9.251-10.17a19.407 19.407 0 0 1 9.333-2.331 23.791 23.791 0 0 1 8.7 1.751l.017.007a84.463 84.463 0 0 1 8.929 3.685c1.073.5 2.047 1 2.99 1.481a24.667 24.667 0 0 0 3.81 1.722 25.266 25.266 0 0 0 2.8-.567c.832-.2 1.775-.417 2.779-.615a44.958 44.958 0 0 1 23.818 1.8 17.99 17.99 0 0 1 7.842 5.16 17.219 17.219 0 0 1 2.992 5.114 24.294 24.294 0 0 0 3.089.143c.5 0 .992 0 1.487-.008.572-.005 1.143-.01 1.714-.01.418 0 .834 0 1.251.008 7.386.114 13.588 1.5 18.96 4.223a28.99 28.99 0 0 1 15.326 18.473 37.807 37.807 0 0 1 .969 7.722c.042.871.1 2.046.193 2.53l.065.148a20.29 20.29 0 0 1 1.474 4.506 18.813 18.813 0 0 1-.359 8.294 37.528 37.528 0 0 1 6.878 24.033c-.878 10.877-7.536 20.577-16.961 24.712a17.991 17.991 0 0 1-7.329 1.627 15.66 15.66 0 0 1-8.938-2.782 26.261 26.261 0 0 1-8.721 4.966c.772 2.368 2.547 7.865-.313 13.829a15.847 15.847 0 0 1-1.447 2.432 18.593 18.593 0 0 1 .157 1.913 17.7 17.7 0 0 1-5.091 12.937 20.742 20.742 0 0 1-14.846 6.15z" opacity="0.3" transform="translate(-320.446 -400.278)"/>
        <path fill="#f8ebb2" d="M395.656 587.907c-.386-4.756 2.362-9.771 5.237-16.6 1.621-3.852 1.018-6.218.376-10.348-.5-3.2-3.741-4.526-3.447-7.754.12-1.31 2.3-7.518 2.37-8.831.172-3.109-3.907-5.445-5.385-8.185-3.979-7.375.991-17.55 3.877-25.417 1.251-3.41 1.969-6.336 5.6-6.247 1.15.029 5.147 2.09 6.286 1.933 1.936-.267 6.744-2.607 7.715-4.3 5.479-9.566 3.019-13.4 10.339-21.648.5-.561 2.884-5.4 5.02-6.558 3.2-1.732 6.71-.076 7.513.206a71.541 71.541 0 0 1 7.876 3.248c3.736 1.743 7.35 4.149 11.465 4.392 3 .176 5.916-.825 8.86-1.4a32.1 32.1 0 0 1 16.965 1.28 5.528 5.528 0 0 1 2.416 1.421 9.969 9.969 0 0 1 1.333 3.1c1.267 3.316 4.706 5.368 8.174 6.123s7.065.464 10.614.519a30.366 30.366 0 0 1 13.322 2.827c4.083 2.072 7.541 5.683 8.66 10.123.967 3.843.169 8.047 1.626 11.733a14.083 14.083 0 0 1 .914 2.45c.505 2.636-1.574 5.207-1.251 7.871.21 1.729 1.386 3.157 2.411 4.566 3.447 4.743 5.642 10.584 5.17 16.429s-3.918 11.586-9.288 13.941a4.319 4.319 0 0 1-3.044.4 4.632 4.632 0 0 1-1.914-1.5 26.942 26.942 0 0 1-4.78-7.993c-.484-1.267-.973-2.694-2.175-3.323-2.122-1.111-4.567 1.22-5.076 3.561s-.016 4.861-.833 7.113c-1.781 4.909-8.162 5.719-13.185 7.143a4.236 4.236 0 0 0-2.518 1.477 4.319 4.319 0 0 0-.446 2.628 39.274 39.274 0 0 0 1.867 9.994c.465 1.427 1.006 3.017.357 4.371-.69 1.438-2.493 2.062-3.232 3.476-1.084 2.072.61 4.5.68 6.833.123 4.056-4.946 6.621-8.87 5.59s-6.779-4.318-9.375-7.436l-11.362 4.324a5.54 5.54 0 0 1-3.044.533 7.7 7.7 0 0 1-2.8-1.748c-4.376-3.3-10.552-2.363-15.787-.751s-10.7 3.776-16.019 2.451c-1.977-.492-4.448-3.385-8.855-2.283a47.082 47.082 0 0 0-7.522 3.048c-4.083 2.279-16.237-5.397-16.835-12.782z" transform="translate(-320.446 -400.278)"/>
    </g>
</svg>
