<svg xmlns="http://www.w3.org/2000/svg" width="195.352" height="177.847" viewBox="0 0 195.352 177.847">
    <g>
        <path fill="#434949" d="M1426.263 324.966c-9 0-16.928-5.41-19.731-13.462a15.184 15.184 0 0 1-.865-5.8l-.083-.028.12-.5a14.106 14.106 0 0 1 .885-3.834l.1-.258 1.684-6.979a13.985 13.985 0 0 1 4.245-7.112 14.993 14.993 0 0 1 1.1-5.949 14.721 14.721 0 0 1 13.757-8.985 16.136 16.136 0 0 1 2.716.232 19.969 19.969 0 0 1 3.656-2.708 18.689 18.689 0 0 1 14.022-1.854 23.219 23.219 0 0 1 7.28 3.53c.258.173.611.41.738.484a23.706 23.706 0 0 0 4.779.643c1.6.124 3.42.266 5.329.556a13.482 13.482 0 0 1 11.557 15.328 27.033 27.033 0 0 1-1.2 4.938c2.111 2.975 5.484 8.155 4.356 15.285a18.718 18.718 0 0 1-12.25 14.42 23.875 23.875 0 0 1-8.382 1.4c-.988 0-2.006-.046-3.2-.143a23.806 23.806 0 0 1-12.263-4.009 20.222 20.222 0 0 1-1.7-1.347c-5.286 4.038-10.836 6.106-16.5 6.148z" opacity="0.3" transform="translate(-1345.584 -207.119)"/>
        <path fill="#ed7f5d" d="M1425.546 287.25a2.691 2.691 0 0 1 .1-1.294c.438-1.065 1.939-1.2 3.013-.783a18.433 18.433 0 0 0 3.143 1.406c1.75.321 3.438-.811 4.664-2.1s2.26-2.823 3.8-3.709a5.8 5.8 0 0 1 4.317-.571c1.833.484 3.294 1.827 4.943 2.762 4.321 2.449 9.621 1.984 14.531 2.732a.872.872 0 0 1 .672.329.841.841 0 0 1 .047.524c-.4 2.906-2.25 5.628-1.848 8.533.582 4.208 5.712 7.207 5.048 11.4a5.927 5.927 0 0 1-3.965 4.333 14.266 14.266 0 0 1-6.09.507 11.589 11.589 0 0 1-5.852-1.677c-2.2-1.557-3.365-4.425-5.832-5.507a7.043 7.043 0 0 0-6.072.657 41.5 41.5 0 0 0-5.069 3.772 15.031 15.031 0 0 1-8.772 3.506c-3.2.024-6.561-1.78-7.615-4.807a1.909 1.909 0 0 1-.086-1.293 2.117 2.117 0 0 1 1.028-.97 28.74 28.74 0 0 1 8.886-2.838c.6-.112 1.364-.455 1.235-1.047-.071-.328-.405-.52-.707-.668a63.391 63.391 0 0 0-8.156-3.318c.231-.956 1.537-.992 2.5-1.193 4.578-.957 2.429-5.702 2.137-8.686z" transform="translate(-1345.584 -207.119)"/>
    </g>
</svg>
