<svg xmlns="http://www.w3.org/2000/svg" width="240.412" height="223.908" viewBox="0 0 240.412 223.908">
    <g>
        <path fill="#434949" d="M1091.478 386.95c-6.351 0-12.95-3.414-20.77-10.743a92.185 92.185 0 0 1-10.535-11.665c-4.628-6.476-7.1-12.66-7.552-18.9-.734-10.1 4.16-19.464 12.468-23.846a32.945 32.945 0 0 1 10.768-3.116c.17-.025.356-.054.55-.085 3.938-8.324 10.524-10.154 15.547-10.154q.405 0 .829.017a19.224 19.224 0 0 1 2.477.267l.943-5.663 8.848-1.67a17.234 17.234 0 0 1 3.182-.3c6.988 0 11.544 4.091 14.137 6.608.175-.1.367-.217.578-.347.405-.661.965-1.674 1.405-2.469 2.763-4.994 6.933-12.533 15.223-17.485.157-.11.3-.228.44-.336a16.585 16.585 0 0 1 10.471-4.018 15.194 15.194 0 0 1 8.319 2.517 23.9 23.9 0 0 1 11.663 11.524c3.434 7.349 3.319 16.353-.352 27.527a26.186 26.186 0 0 1-7.384 11.337 21.5 21.5 0 0 1-1.57 13.349c-1.828 3.928-6.146 7.824-8.488 9.219a16.892 16.892 0 0 1-8.784 2.326c-.583 0-1.167-.024-1.787-.075a39.481 39.481 0 0 1-9.347-2.142l-.123-.039a16.905 16.905 0 0 1-6.641 8.584l-5.411 3.575-10.455-3.792q-1.371 4.564-3.07 9.014a16.485 16.485 0 0 1-15.579 10.981z" opacity="0.3" transform="translate(-992.549 -223.042)"/>
        <path fill="#bdca99" d="M1070.663 357.045c-2.627-3.677-4.855-7.834-5.182-12.341s1.626-9.4 5.624-11.509c5.047-2.662 12.679-.933 15.57-5.852 1.444-2.458 1.278-6.186 5.572-6.007a7.5 7.5 0 0 1 2.25.477c5.5 2 12.006-2.116 12.946-7.756 3.892-.734 6.282 4.113 9.718 6.084 4.7 2.7 9.647.17 14.156-2.848 3.987-2.984 6.213-13.693 14.924-18.858 2.37-1.406 3.6-3.565 5.786-1.889 1.575 1.206 12.631 3.367 5.84 24.04-1.856 5.649-6.02 6.9-7.5 9.512-2.973 5.244 1.65 8.292-.894 13.758a14.228 14.228 0 0 1-3.4 3.584 4.908 4.908 0 0 1-2.927.474c-3.794-.307-7.3-2.131-11.035-2.854s-8.317.1-10.034 3.5c-1.3 2.581-.782 6.261-3.194 7.855l-17.933-6.506a117.36 117.36 0 0 1-5.938 21.458c-3.763 9.846-21.398-10.193-24.349-14.322z" transform="translate(-992.549 -223.042)"/>
    </g>
</svg>
