<svg xmlns="http://www.w3.org/2000/svg" width="267.483" height="315" viewBox="0 0 267.483 315">
    <defs>
        <filter id="02m2vl0dwa" width="267.483" height="312.803" x="0" y="1" filterUnits="userSpaceOnUse">
            <feOffset/>
            <feGaussianBlur result="blur" stdDeviation="15"/>
            <feFlood flood-opacity=".302"/>
            <feComposite in2="blur" operator="in"/>
            <feComposite in="SourceGraphic"/>
        </filter>
    </defs>
    <g>
        <path fill="none" d="M0 0H215V315H0z" transform="translate(-786.753 -2598) translate(813 2598)"/>
        <g filter="url(#02m2vl0dwa)" transform="translate(-786.753 -2598) translate(786.75 2598)">
            <path fill="#c6d2e3" d="M858.636 293.314a32.151 32.151 0 0 1 16.243 12.769c8.953 13.827 6 31.777 6.783 48.23a100.006 100.006 0 0 0 10.946 40.887 23.365 23.365 0 0 0 5.339 7.436c5.8 4.88 14.538 4 21.251 7.513 5.368 2.806 8.9 8.108 12.191 13.193 4.8 7.4 4.249 19.715 9.047 27.12 3.583 5.53 14.315 14.11 20.585 16.136 11.544 3.733 16.349.6 26.452 1.109a14.454 14.454 0 0 1 9.952-10.028c1.33-.364 2.836-.606 3.689-1.689a4.955 4.955 0 0 0 .646-3.576 32.767 32.767 0 0 0-24.98-28.154c-4.166-.9-8.826-1.113-11.948-4.014-5.1-4.746-2.82-13.318.933-19.192a56.035 56.035 0 0 1 11.979-13.391c3.178-2.569 6.8-4.986 8.383-8.752 2.457-5.83-.832-12.285-2.674-18.337-3.21-10.548-.333-24.379 9.963-28.323 4.533-1.737 9.575-1.217 14.4-.705s9.891.962 14.376-.9 8.074-6.831 6.677-11.481c-1.055-3.509-4.49-5.734-7.876-7.131s-7.063-2.334-9.911-4.638-4.567-6.613-2.578-9.69c1.086-1.679 2.986-2.6 4.606-3.773a16.227 16.227 0 0 0 6.432-15.071c-6.723 1.2-13.943 1.692-20.116-1.231s-10.7-10.253-8.4-16.684c.546-1.531 1.454-3.031 1.3-4.648-.178-1.832-1.673-3.241-3.178-4.3-8.536-6.008-19.7-6.308-30.14-6.341-7.809-.025-15.844.017-23.083 2.946-7.421 3-13.325 8.765-19.024 14.386-5.237-4.36-11.106-8.367-17.825-9.506s-14.435 1.274-17.768 7.217c-2.533 4.514-3.117 9.157-8.572 11.128-4.564 1.651-9.166-1.189-13.5-.082-4.476 1.145-5.77 5.906-6.866 10.038-1.801 6.792-.097 9.306 6.266 11.529z" transform="translate(-806.69 -199.65)"/>
        </g>
    </g>
</svg>
