<svg xmlns="http://www.w3.org/2000/svg" width="278.924" height="315" viewBox="0 0 278.924 315">
    <defs>
        <filter id="vcjml55u2a" width="278.924" height="227.18" x="0" y="44" filterUnits="userSpaceOnUse">
            <feOffset/>
            <feGaussianBlur result="blur" stdDeviation="15"/>
            <feFlood flood-opacity=".302"/>
            <feComposite in2="blur" operator="in"/>
            <feComposite in="SourceGraphic"/>
        </filter>
    </defs>
    <g>
        <path fill="none" d="M0 0H215V315H0z" transform="translate(-1045.042 -2598) translate(1077 2598)"/>
        <g filter="url(#vcjml55u2a)" transform="translate(-1045.042 -2598) translate(1045.04 2598)">
            <path fill="#eab1b3" d="M1335.041 216.067c-1.2 2.716-6.206 3-11.99 4.092-3.263.617-3.375 2.3-4.056 4.915-.527 2.024 2.846 5.345 1.373 6.733-.6.563-5.341 1.915-5.886 2.519-1.289 1.428 2.723 5.944 3.516 8.536 2.134 6.978-7.3 8.046-13.458 9.655-2.67.7-4.542 1.586-8.807-1.43-1.35-.956-5.36-5.266-6.764-6.12-2.383-1.449-8.889-4.2-10.63-4.141-9.822.344-8.25 4.294-19.789 2.464-.787-.124-5.3.367-8.229-.8-4.4-1.748-7.967-5.451-8.82-6.251-3.1-2.913-4.689-4.473-8.187-8.084-3.812-3.937-7.249-8.107-12.033-11.6a116.3 116.3 0 0 0-10.974-6.542 105.906 105.906 0 0 1-19.629-14.528 12.871 12.871 0 0 1-2.364-2.695 5.79 5.79 0 0 1-.494-2.656c-.343-2.71-3.7-6.56-7.536-9.779s-8.2-6.015-12.378-8.947a96.018 96.018 0 0 1-14.777-12.327c-4.109-4.388-6.941-9.039-6.716-12.2.2-2.732 2.608-4.2 2.171-7.252a7.1 7.1 0 0 1-.227-1.986c.323-1.743 3.68-1.339 4.227-2.948.355-1.045-.539-2.728-1.259-4.277-2.425-5.215-2.984-9.959-.385-12.523s8.68-2.64 15.856.565a13.885 13.885 0 0 1 3.743 2.288 8.785 8.785 0 0 1 1.741 2.323 22.663 22.663 0 0 1 2.868 7.946 5.3 5.3 0 0 0 1.414 3.456c2.123 2.3 5.83 3.122 7.25 2.357s1.715-2.44 3.468-2.908c3.82-1.021 11.653 3.792 18.094 7.184a9.747 9.747 0 0 0 3.5 1.315 1.452 1.452 0 0 0 1.445-.961 12.838 12.838 0 0 0 1.278-6.572c-.052-1.1-.137-2.346 1.1-2.5 1.318-.162 3.67 1 5.037.89 2.006-.159.848-2.768 1.58-4 1.27-2.147 8.164.706 12.448 4.438s6.513 7.725 8.5 11.423l14.954 7.115a17.717 17.717 0 0 1 3.788 2.221c1.208 1.006 1.475 6.578 2.293 7.642 4.027 5.243 11.332-6.992 17.866-1.008 10 9.158 19.25-.741 24.2 5.145 8.27 9.84 4.594 27.855 10.192 30.9 2.181 1.188 7.836 3.789 9.965 4.617 5.615 2.201 13.391 10.08 11.521 14.296z" transform="translate(-1101.4 -27.02)"/>
        </g>
    </g>
</svg>
