<svg xmlns="http://www.w3.org/2000/svg" width="305.685" height="349.263" viewBox="0 0 305.685 349.263">
    <g>
        <path fill="#434949" d="M638.212 261.469c-6.019 0-10.71-2.726-13.814-4.53-10.937-6.355-13.91-16.185-8.37-27.679a15.084 15.084 0 0 0 1.141-9.525c-1.473-6.881-7.87-13.2-14.643-19.883-2.565-2.531-5.217-5.149-7.75-7.935a100.136 100.136 0 0 1-21.128-36.579 32.5 32.5 0 0 1-1.854-12.882c.6-6.94 3.994-12.188 6.475-16.02a24.662 24.662 0 0 0 2.506-4.4c.6-1.918-.278-6.037-.921-9.044-.306-1.435-2.311-4.542-3.775-6.81-2.827-4.381-6.033-9.347-7.327-15.407-1.676-7.848-.38-22.823 3.862-31.12a44.68 44.68 0 0 1 12.9-15.514 40.664 40.664 0 0 0 4.588-4.2l7-7.739 8.734 5.066a17.384 17.384 0 0 1 9.118-2.769 15.268 15.268 0 0 1 1.789.105 16.659 16.659 0 0 1 11.022 6.387c10.967 13.253 12.168 33.372 2.856 47.837-.308.478-.617.937-.914 1.371.109.027.222.054.336.079a35.791 35.791 0 0 0 11.45.638c.452-.048.908-.1 1.364-.158a49.4 49.4 0 0 1 6.075-.457 24.239 24.239 0 0 1 9.309 1.721c8.69 3.538 12.435 11.24 14.913 16.337.433.889.841 1.728 1.222 2.443 1.82 3.411 5.219 5.589 6.76 5.589a.262.262 0 0 0 .128-.018c1.049-.468 3.128-3.041 4.5-4.743 2.949-3.649 7.4-9.161 14.486-12.09a23.562 23.562 0 0 1 8.925-1.757c7.93 0 15.023 4.029 18.511 10.515 2.057 3.824 3.765 10.068.754 18.562a26.891 26.891 0 0 1 17.208 10.261l8.076 10.693-11 7.659c-1.44 1-5.822 4.054-6.828 6.871a.528.528 0 0 0-.018.059 17.775 17.775 0 0 1 6.572 4.877c2.275 2.765 4.719 7.611 3.437 14.993-2.316 13.331-11.86 22.936-18.176 29.292-5.072 5.1-11.384 11.456-20.1 15.151a48.809 48.809 0 0 1-14.662 3.469 37.769 37.769 0 0 1-5.489 11.763c-5.4 7.6-14.145 12.323-22.833 12.323a24.063 24.063 0 0 1-6.52-.894c-1.259-.354-2.38-.752-3.342-1.11a23.426 23.426 0 0 1-6.935 6.561 18.622 18.622 0 0 1-9.618 2.641z" opacity="0.3" transform="translate(-508.043 27.794)"/>
        <path fill="#dc917e" d="M627.643 234.858a27.932 27.932 0 0 0 2.134-17.821c-2.994-13.992-15.834-23.205-25.46-33.793a86.887 86.887 0 0 1-18.389-31.836 20.348 20.348 0 0 1-1.288-7.848c.563-6.557 6.472-11.388 8.439-17.668 1.574-5.022.484-10.445-.615-15.592-1.6-7.5-9.5-14.721-11.1-22.217-1.2-5.6.126-17.46 2.732-22.557 4.8-9.384 9.672-10.414 15.567-16.929a12.561 12.561 0 0 0 12.274.046c1.041-.593 2.114-1.369 3.3-1.229a4.309 4.309 0 0 1 2.593 1.8 28.466 28.466 0 0 1 1.949 32.638c-2.005 3.113-4.737 6.105-4.873 9.806-.221 6.051 6.448 9.913 12.361 11.216a48.725 48.725 0 0 0 15.585.868c3.53-.374 7.237-1.113 10.526.226 5.09 2.072 7.034 8.057 9.62 12.906 4.508 8.451 14.771 15.18 23.518 11.278 3.851-1.718 6.629-5.135 9.28-8.415s5.486-6.666 9.383-8.278 9.156-.764 11.154 2.951c1.508 2.8.764 6.279-.457 9.218s-2.9 5.773-3.239 8.938 1.256 6.867 4.368 7.535c1.7.365 3.433-.236 5.147-.512a14.1 14.1 0 0 1 13.209 5.307c-4.869 3.391-9.6 7.526-11.6 13.113s-.274 12.871 5.088 15.411c1.276.6 2.755.968 3.652 2.058 1.016 1.234.963 3.018.69 4.593-1.553 8.934-8.228 15.977-14.619 22.41-4.781 4.811-9.744 9.721-15.989 12.368-6.4 2.714-13.569 2.8-20.523 2.849-.538 5.9-1.683 11.962-5.11 16.79s-9.649 8.084-15.348 6.481c-4.328-1.218-7.54-3.71-12.1-1.571-3.817 1.791-4.9 6.362-8.241 8.342-3.452 2.047-7.172-.083-10.383-1.949-5.278-3.068-5.778-5.658-3.235-10.933z" transform="translate(-508.043 27.794)"/>
    </g>
</svg>
