<svg xmlns="http://www.w3.org/2000/svg" width="258.73" height="315" viewBox="0 0 258.73 315">
    <defs>
        <filter id="bb32dfduka" width="258.73" height="233.518" x="0" y="41" filterUnits="userSpaceOnUse">
            <feOffset/>
            <feGaussianBlur result="blur" stdDeviation="15"/>
            <feFlood flood-opacity=".302"/>
            <feComposite in2="blur" operator="in"/>
            <feComposite in="SourceGraphic"/>
        </filter>
    </defs>
    <g>
        <path fill="none" d="M0 0H215V315H0z" transform="translate(-527.118 -2598) translate(549 2598)"/>
        <g filter="url(#bb32dfduka)" transform="translate(-527.118 -2598) translate(527.12 2598)">
            <path fill="#ddbb98" d="M577.7 364.966c4.607-6.679 10.269-12.973 17.68-16.273s16.867-2.986 22.864 2.479c7.573 6.9 9.3 20.842 19.373 22.725 5.031.941 11.226-1.612 13.541 5.747a13.6 13.6 0 0 1 .567 4.092c-.022 10.5 10.892 18.986 20.987 17.133 3.614 6.126-3.115 13.117-4.35 20.12-1.691 9.592 5.594 16.395 13.44 22.169 7.469 4.914 26.91 2.146 40.943 13.706 3.819 3.147 8.212 3.9 6.716 8.621-1.077 3.393 2.014 23.381-37.036 24.515-10.67.309-15.325-5.959-20.634-6.867-10.67-1.824-13 7.84-23.779 6.878-1.751-.156-6.765-2.443-8.124-3.557a8.821 8.821 0 0 1-2.588-4.654c-1.793-6.594-.851-13.623-1.907-20.375s-5.239-13.982-12.022-14.811c-5.154-.628-11.05 2.5-15.212-.605l.054-34.248a210.833 210.833 0 0 1-39.855 3.052c-18.926-.353 4.164-42.346 9.342-49.847z" transform="translate(-516.03 -260.56)"/>
        </g>
    </g>
</svg>
