<svg xmlns="http://www.w3.org/2000/svg" width="281.414" height="315" viewBox="0 0 281.414 315">
    <defs>
        <filter id="xniyfh1ita" width="281.414" height="213.992" x="0" y="51" filterUnits="userSpaceOnUse">
            <feOffset/>
            <feGaussianBlur result="blur" stdDeviation="15"/>
            <feFlood flood-opacity=".302"/>
            <feComposite in2="blur" operator="in"/>
            <feComposite in="SourceGraphic"/>
        </filter>
    </defs>
    <g>
        <path fill="none" d="M0 0H215V315H0z" transform="translate(-2480 -2832) translate(2513 2832)"/>
        <g filter="url(#xniyfh1ita)" transform="translate(-2480 -2832) translate(2480 2832)">
            <path fill="#ed7f5d" d="M1445.629 308a10.406 10.406 0 0 1 .375-5c1.694-4.119 7.5-4.637 11.653-3.028s7.773 4.633 12.155 5.438c6.768 1.241 13.3-3.137 18.038-8.126s8.74-10.918 14.708-14.345a22.44 22.44 0 0 1 16.7-2.208c7.089 1.872 12.739 7.066 19.117 10.682 16.712 9.472 37.21 7.673 56.2 10.566a3.372 3.372 0 0 1 2.6 1.272 3.251 3.251 0 0 1 .182 2.027c-1.528 11.239-8.7 21.766-7.147 33 2.251 16.275 22.091 27.873 19.523 44.1-1.242 7.843-7.882 14.02-15.335 16.758s-15.64 2.607-23.553 1.961-16.151-1.891-22.633-6.486c-8.5-6.022-13.014-17.114-22.555-21.3-7.468-3.276-16.324-1.373-23.483 2.541s-13.123 9.634-19.6 14.588c-9.847 7.53-21.53 13.467-33.926 13.559s-25.375-6.884-29.451-18.591a7.385 7.385 0 0 1-.332-5c.669-1.736 2.355-2.839 3.976-3.751 10.535-5.917 22.494-8.756 34.367-10.976 2.306-.433 5.275-1.76 4.776-4.049-.274-1.269-1.566-2.011-2.734-2.583a245.168 245.168 0 0 0-31.543-12.832c.893-3.7 5.944-3.837 9.665-4.614 17.698-3.703 9.386-22.058 8.257-33.603z" transform="translate(-1373.54 -184.01)"/>
        </g>
    </g>
</svg>
