<svg xmlns="http://www.w3.org/2000/svg" width="258.925" height="315" viewBox="0 0 258.925 315">
    <defs>
        <filter id="wl4xb6whea" width="258.925" height="229.487" x="0" y="42" filterUnits="userSpaceOnUse">
            <feOffset/>
            <feGaussianBlur result="blur" stdDeviation="15"/>
            <feFlood flood-opacity=".302"/>
            <feComposite in2="blur" operator="in"/>
            <feComposite in="SourceGraphic"/>
        </filter>
    </defs>
    <g>
        <path fill="none" d="M0 0H215V315H0z" transform="translate(-1055.028 -2236) translate(1077 2236)"/>
        <g filter="url(#wl4xb6whea)" transform="translate(-1055.028 -2236) translate(1055.03 2236)">
            <path fill="#bdca99" d="M1074.761 405.049c-4.691-6.565-8.669-13.988-9.253-22.035s2.9-16.786 10.042-20.55c9.012-4.753 22.639-1.666 27.8-10.449 2.578-4.389 2.282-11.045 9.949-10.726a13.4 13.4 0 0 1 4.018.852c9.819 3.568 21.437-3.778 23.116-13.849 6.949-1.311 11.217 7.344 17.352 10.863 8.4 4.821 17.225.3 25.276-5.085 7.119-5.328 11.094-24.449 26.647-33.672 4.232-2.51 6.424-6.365 10.331-3.373 2.813 2.153 22.553 6.012 10.428 42.924-3.314 10.087-10.749 12.324-13.392 16.984-5.308 9.363 2.946 14.806-1.6 24.565-.737 1.586-4.569 5.5-6.071 6.4a8.763 8.763 0 0 1-5.226.846c-6.774-.548-13.031-3.8-19.7-5.1s-14.85.179-17.916 6.244c-2.328 4.608-1.4 11.179-5.7 14.025L1128.84 392.3a209.537 209.537 0 0 1-10.6 38.314c-6.721 17.586-38.209-18.193-43.479-25.565z" transform="translate(-1020.45 -208.94)"/>
        </g>
    </g>
</svg>
