<svg xmlns="http://www.w3.org/2000/svg" width="262.304" height="376.408" viewBox="0 0 262.304 376.408">
    <defs>
        <filter id="zs55ljgkxa" width="262.304" height="376.408" x="0" y="0" filterUnits="userSpaceOnUse">
            <feOffset/>
            <feGaussianBlur result="blur" stdDeviation="15"/>
            <feFlood flood-opacity=".302"/>
            <feComposite in2="blur" operator="in"/>
            <feComposite in="SourceGraphic"/>
        </filter>
    </defs>
    <g>
        <g filter="url(#zs55ljgkxa)" transform="translate(-25.168 -2204.893) translate(25.17 2204.89)">
            <path fill="#fcf7ce" d="M243.693 371.5c-.088-1.57-.91-2.989-1.43-4.473-1.885-5.389.315-11.369 3.356-16.2s10.556-8.817 12.649-14.129-1.789-12.552-6.246-16.121c-2.609-2.088-7.471-4.6-10.778-5.081-12.211-1.775-22.3 1-34.512-.774-3.258-.473-7.336-3.564-10.222-5.149a14.072 14.072 0 0 1-7.146-11.706c-.217-7.852 7.217-16.85 7.064-21.756-.177-5.638-5.469-7.1-6.337-12.671-.412-2.639-.334-7.039-1.26-9.545s-4.219-2.954-6.454-1.492c-1.157.757-4.914 3.32-4.906 4.7.051 8.329-1.872 19.3-5.821 26.909s-9.79 15.332-17.664 18.734c-3.857 1.666-10.742 4.192-13.649 7.226-5.616 5.861-2.307 11.181-5.888 18.466-2.964 6.032-8.487 3.114-13.364 7.738a26.028 26.028 0 0 0-5.069 29.957c1.944 3.766 4.86 7.108 5.866 11.225 1.248 5.1-.76 10.6-4.2 14.571-4.323 4.98-11.424 10.3-8.786 16.342 1.621 3.713 6.294 4.984 10.344 4.884s8.185-1.091 12.09-.015a3.9 3.9 0 0 1 2.22 1.307 4.3 4.3 0 0 1 .223 3.563 25.052 25.052 0 0 1-9.447 13.9c-2.857 2.076-6.139 3.529-8.926 5.7-7.609 5.928-10.347 16.192-11.074 25.811-.313 4.138-.355 8.365-1.68 12.3s-4.253 7.625-8.3 8.54c10.566 8.351 14.321 24.247 8.611 36.443-1.334 2.849-3.131 5.539-3.762 8.62s.32 6.813 3.166 8.151c4.948 2.324 9.376-3.793 12.1-8.534 8.76-15.261 13.138-26.5 30.645-28.282 9.983-1.017 21.654 4.564 33.395.7 15.963-5.26 11.363-13.682 37.819-19.786 6.6-1.523 14.021-2.95 20.094-5.952 8.207-4.058 8.515-10.844 13.666-18.414 4.942-7.264 18.466-15.641 16.349-24.168-1.563-6.295-9.007-12.91-14.045-16.994-6.176-5.006-19.645-11.387-21.354-19.927-2.282-11.388 13.17-15.68 12.663-24.618z" transform="translate(-49.34 -206.57)"/>
        </g>
        <path fill="none" d="M0 0H215V315H0z" transform="translate(-25.168 -2204.893) translate(49 2236)"/>
    </g>
</svg>
