<svg xmlns="http://www.w3.org/2000/svg" width="271.247" height="316.037" viewBox="0 0 271.247 316.037">
    <defs>
        <filter id="wuqdytf3la" width="271.247" height="316.037" x="0" y="0" filterUnits="userSpaceOnUse">
            <feOffset/>
            <feGaussianBlur result="blur" stdDeviation="15"/>
            <feFlood flood-opacity=".302"/>
            <feComposite in2="blur" operator="in"/>
            <feComposite in="SourceGraphic"/>
        </filter>
    </defs>
    <g>
        <g filter="url(#wuqdytf3la)" transform="translate(-258.868 -2235) translate(258.87 2235)">
            <path fill="#d7bbaa" d="M432.861 306.471c-2.576-3.021-6.347-4.7-9.987-6.286L393.513 287.4l35.916-6.992 5.3-1.031 14.7-2.861a1.938 1.938 0 0 0 1.87-2.683l-.87-7.02a61.853 61.853 0 0 1-17.664-4.353c-2.113-.868-4.477-2.263-4.628-4.542-.126-1.892 1.388-3.554 1.471-5.448.158-3.6-4.384-5.247-7.96-5.709-20.3-2.62-41.191-2.59-60.556-9.209a5.4 5.4 0 0 1-2.446-1.37 4.1 4.1 0 0 1-.667-3.443c.756-3.975 4.535-6.661 8.319-8.094s7.9-2.069 11.394-4.108 6.3-6.164 5.061-10.016c-1.806.066-3.771.086-5.217-1s-1.755-3.723-.134-4.523a35.763 35.763 0 0 0 28.82 6.2c6.106-1.361 11.824-4.34 18.034-5.1 8.587-1.047 17.823 4.112 25.757.665 5.33-2.315 9.3-8.553 12.773-13.428 3.373-4.732 6.972-10.756 7.533-16.539l.753-7.756c.109-1.119-1.153-4.056-1.735-5.018-1.108-1.829-9.676-3.1-11.791-2.784-6.821 1.035-9.367 5.453-16.212 4.586-1.351-.171-3.72-2.5-4.094-4.422-.219-1.126-1.418-8.372-1.637-9.5-2.006-10.306-.15-18.411-5.263-27.581-3.452-6.191-8.472-9.438-14.781-12.67-4.749-2.433-14.328-3.016-20.06 1.358-5.611 4.282-10.332 3.169-17.206 1.562-4.055-.947-4.665-5.689-7.982-8.206-6.8-5.159-9.79-3.68-17.948-6.177-1.254-.383-10.213-4.5-11.463-4.1-7.088 2.262-.966 7.24-3.318 8.927-2.395 1.718-7.39-3.771-11.463-2.715-5.128 4.065-.788 15.545-.754 22.624s-2.493 14.59-8.144 18.853c-2.494 1.881-8.832 6.4-11.312 8.3-5.86 4.484-5.448 10.709-5.709 18.083-.22 6.213.65 2.7.43 8.914-.042 1.174-1.339 5.309-2.263 6.033-1.5 1.175-6.849 4.964-7.39 6.788-2.866 9.653.217 12.421 3.016 15.082 24.434 23.227 7.235 34.05 10.709 38.913 7.541 10.558 14.6 11.667 18.7 15.385 4.89 4.432 6.794 10.443 6.787 17.043 0 1.958 1.256 12.116 2.715 13.423a10.668 10.668 0 0 0 6.183 2.565c14.508.311 19.713 5.439 33.036 11.189 9.974 4.3 19.329 10.05 29.6 13.576 8.193 2.811 17.363 4.16 25.852 1.871 7.025-1.893 10.968-7.811 5.286-14.471z" transform="translate(-244.82 -51.06)"/>
        </g>
        <path fill="none" d="M0 0H215V315H0z" transform="translate(-258.868 -2235) translate(287 2236)"/>
    </g>
</svg>
