<svg xmlns="http://www.w3.org/2000/svg" width="269.723" height="315" viewBox="0 0 269.723 315">
    <defs>
        <filter id="y0vtx78lsa" width="269.723" height="249.051" x="0" y="33" filterUnits="userSpaceOnUse">
            <feOffset/>
            <feGaussianBlur result="blur" stdDeviation="15"/>
            <feFlood flood-opacity=".302"/>
            <feComposite in2="blur" operator="in"/>
            <feComposite in="SourceGraphic"/>
        </filter>
    </defs>
    <g>
        <path fill="none" d="M0 0H215V315H0z" transform="translate(-272 -2598) translate(299 2598)"/>
        <g filter="url(#y0vtx78lsa)" transform="translate(-272 -2598) translate(272 2598)">
            <path fill="#f8ebb2" d="M396.186 613.973c-.474-5.836 2.9-11.991 6.427-20.37 1.989-4.727 1.249-7.631.461-12.7-.612-3.929-4.591-5.554-4.23-9.516.147-1.608 2.819-9.226 2.908-10.837.211-3.815-4.795-6.682-6.608-10.044-4.883-9.05 1.216-21.537 4.758-31.191 1.535-4.185 2.416-7.775 6.872-7.666 1.411.036 6.316 2.565 7.714 2.372 2.376-.328 8.276-3.2 9.468-5.279 6.724-11.739 3.7-16.45 12.688-26.566.612-.688 3.539-6.63 6.16-8.048 3.933-2.125 8.234-.093 9.22.253a87.8 87.8 0 0 1 9.665 3.986c4.585 2.139 9.02 5.092 14.07 5.39 3.675.216 7.26-1.012 10.873-1.724a39.389 39.389 0 0 1 20.819 1.571 6.783 6.783 0 0 1 2.965 1.744c.906 1.055 1.139 2.51 1.636 3.808 1.555 4.069 5.775 6.588 10.031 7.514s8.67.569 13.025.637c5.619.086 11.337.925 16.349 3.469s9.254 6.974 10.627 12.423c1.187 4.716.207 9.875 2 14.4a17.28 17.28 0 0 1 1.116 3.001c.62 3.235-1.932 6.39-1.535 9.659.258 2.122 1.7 3.874 2.959 5.6 4.23 5.82 6.924 12.988 6.344 20.161s-4.808 14.218-11.4 17.108a5.3 5.3 0 0 1-3.736.492 5.685 5.685 0 0 1-2.349-1.84 33.062 33.062 0 0 1-5.866-9.809c-.594-1.555-1.194-3.306-2.669-4.078-2.6-1.363-5.6 1.5-6.229 4.37s-.02 5.965-1.022 8.729c-2.186 6.024-10.016 7.018-16.18 8.766a5.2 5.2 0 0 0-3.09 1.813 5.3 5.3 0 0 0-.547 3.225 48.2 48.2 0 0 0 2.291 12.264c.571 1.751 1.234 3.7.438 5.364-.847 1.765-3.059 2.53-3.966 4.266-1.33 2.543.749 5.517.834 8.385.151 4.977-6.07 8.125-10.885 6.86s-8.319-5.3-11.5-9.125l-13.943 5.306a6.8 6.8 0 0 1-3.736.654c-1.335-.282-2.351-1.324-3.441-2.145-5.37-4.044-12.949-2.9-19.374-.922s-13.136 4.634-19.658 3.008c-2.426-.6-5.459-4.154-10.867-2.8a57.769 57.769 0 0 0-9.231 3.74c-5.007 2.804-19.922-6.616-20.656-15.678z" transform="translate(-348.32 -395.17)"/>
        </g>
    </g>
</svg>
