<svg xmlns="http://www.w3.org/2000/svg" width="244.445" height="315" viewBox="0 0 244.445 315">
    <defs>
        <filter id="hm3phrrpia" width="244.445" height="291.178" x="0" y="11" filterUnits="userSpaceOnUse">
            <feOffset/>
            <feGaussianBlur result="blur" stdDeviation="15"/>
            <feFlood flood-opacity=".302"/>
            <feComposite in2="blur" operator="in"/>
            <feComposite in="SourceGraphic"/>
        </filter>
    </defs>
    <g>
        <g filter="url(#hm3phrrpia)" transform="translate(-523.875 -2236) translate(523.88 2236)">
            <path fill="#dc917e" d="M627.643 234.858a27.932 27.932 0 0 0 2.134-17.821c-2.994-13.992-15.834-23.205-25.46-33.793a86.887 86.887 0 0 1-18.389-31.836 20.348 20.348 0 0 1-1.288-7.848c.563-6.557 6.472-11.388 8.439-17.668 1.574-5.022.484-10.445-.615-15.592-1.6-7.5-9.5-14.721-11.1-22.217-1.2-5.6.126-17.46 2.732-22.557 4.8-9.384 9.672-10.414 15.567-16.929a12.561 12.561 0 0 0 12.274.046c1.041-.593 2.114-1.369 3.3-1.229a4.309 4.309 0 0 1 2.593 1.8 28.466 28.466 0 0 1 1.949 32.638c-2.005 3.113-4.737 6.105-4.873 9.806-.221 6.051 6.448 9.913 12.361 11.216a48.725 48.725 0 0 0 15.585.868c3.53-.374 7.237-1.113 10.526.226 5.09 2.072 7.034 8.057 9.62 12.906 4.508 8.451 14.771 15.18 23.518 11.278 3.851-1.718 6.629-5.135 9.28-8.415s5.486-6.666 9.383-8.278 9.156-.764 11.154 2.951c1.508 2.8.764 6.279-.457 9.218s-2.9 5.773-3.239 8.938 1.256 6.867 4.368 7.535c1.7.365 3.433-.236 5.147-.512a14.1 14.1 0 0 1 13.209 5.307c-4.869 3.391-9.6 7.526-11.6 13.113s-.274 12.871 5.088 15.411c1.276.6 2.755.968 3.652 2.058 1.016 1.234.963 3.018.69 4.593-1.553 8.934-8.228 15.977-14.619 22.41-4.781 4.811-9.744 9.721-15.989 12.368-6.4 2.714-13.569 2.8-20.523 2.849-.538 5.9-1.683 11.962-5.11 16.79s-9.649 8.084-15.348 6.481c-4.328-1.218-7.54-3.71-12.1-1.571-3.817 1.791-4.9 6.362-8.241 8.342-3.452 2.047-7.172-.083-10.383-1.949-5.278-3.068-5.778-5.658-3.235-10.933z" transform="translate(-535.92 8.6)"/>
        </g>
        <path fill="none" d="M0 0H215V315H0z" transform="translate(-523.875 -2236) translate(541 2236)"/>
    </g>
</svg>
