<svg xmlns="http://www.w3.org/2000/svg" width="328.282" height="329.656" viewBox="0 0 328.282 329.656">
    <g>
        <path fill="#434949" d="M1501.616 568.4a22.976 22.976 0 0 1-10.151-2.108 45.334 45.334 0 0 0-7.822-3.144l-7.362.626-4.064-7.239c-7.029-12.52-5.081-29.23 4.963-42.572 6.393-8.491 14.8-14.469 22.212-19.743 1.215-.865 2.429-1.728 3.63-2.6.249-.182.466-.342.653-.485a18.582 18.582 0 0 1 .82-6.008c1.892-5.969 6.307-9 8.68-10.621.207-.142.414-.283.615-.426a7.029 7.029 0 0 0 2.783-4.624c.057-.425.109-.866.162-1.317.508-4.286 1.771-14.94 11.022-19.194a31.563 31.563 0 0 1-3.766-12.722 33.254 33.254 0 0 1 2.21-12.38c.188-.566.378-1.132.55-1.7a27.232 27.232 0 0 0 1.1-9.85l-.039-.5a22.359 22.359 0 0 1 1.4-11.112c4.579-10.655 15.99-11.8 20.684-11.8.853 0 1.737.03 2.628.09.311.021.643.042.975.059a17.291 17.291 0 0 1 4.337-4.887 19.245 19.245 0 0 1 11.718-3.606l34.578-.668c2.773-.053 7.416-.144 8.959-1.2a22.415 22.415 0 0 0 2.716-2.79c.7-.788 1.485-1.68 2.354-2.583a47.69 47.69 0 0 1 34.034-14.552h.125a20.857 20.857 0 0 1 12.831 3.884 21.384 21.384 0 0 1 6.525 8.9c.16.363.481.986.79 1.587 1.794 3.488 4.506 8.757 3.708 15.08a16.249 16.249 0 0 1-2.6 6.8l-.1.657c-.948 6.324-2.247 14.986-13.067 22.128a78.388 78.388 0 0 1-8.061 4.5c-2.886 1.457-5.613 2.834-7.171 4.329a42.745 42.745 0 0 0-7.374 9.63c-7.237 12.629-15.824 16.9-21.506 19.73a22.3 22.3 0 0 0-3.612 2.028c-3.325 3.086-4.154 5.724-5.869 11.923a89.48 89.48 0 0 1-4.3 12.753c-1.136 2.6-4.156 9.507-11.4 12.842a21.836 21.836 0 0 1-5.139 1.594c-.168.333-.334.673-.475.959-1.716 3.5-4.31 8.782-10.024 12.208a24.552 24.552 0 0 1-8.088 2.953 20.942 20.942 0 0 1-1.019 3.907c-3.192 8.615-10.815 11.838-15.369 13.763-.584.247-1.164.489-1.72.745a58.391 58.391 0 0 0-11.535 7.6 19.855 19.855 0 0 1-3.626 7.242 17.481 17.481 0 0 1-11.264 6.242 16.4 16.4 0 0 1-.61 3.254c-1.025 3.517-4.844 11.762-18.131 12.346-.775.037-1.6.072-2.498.072z" opacity="0.3" transform="translate(-1408.035 -298.742)"/>
        <path fill="#c9c6a7" d="M1659.881 376.736a9.338 9.338 0 0 0-2.544-3.852 8.255 8.255 0 0 0-5.1-1.248 34.98 34.98 0 0 0-24.785 10.6c-2.321 2.413-4.325 5.193-7.09 7.081-4.568 3.12-10.451 3.334-15.982 3.441l-34.574.668a6.941 6.941 0 0 0-4.154.97c-1.43 1.09-1.785 3.075-2.821 4.544-2.323 3.3-7.146 3.165-11.171 2.894s-9.01.235-10.6 3.941c-.743 1.729-.486 3.7-.348 5.574a39.955 39.955 0 0 1-1.624 14.557c-.975 3.2-2.369 6.382-2.214 9.721.216 4.649 3.359 8.59 4.883 12.988s.292 10.7-4.3 11.446c-1.071.173-2.182 0-3.238.247-4.151.967-4.293 6.652-4.864 10.876a19.954 19.954 0 0 1-8.054 13.381c-1.753 1.255-3.858 2.4-4.509 4.458-.511 1.612.033 3.361-.108 5.045-.289 3.447-3.285 5.959-6.085 7.99-8.221 5.965-17 11.546-23.113 19.661s-8.993 19.648-4.021 28.505c3.62-.308 11.6 3.492 13.589 4.447s4.293.878 6.494.781c2.508-.11 5.616-.662 6.319-3.072 1.1-3.784-5.134-6.377-4.786-10.3.318-3.6 5.412-4.185 8.888-3.194s7.88 2.245 10.167-.553c1.077-1.316 1.238-3.132 1.866-4.712 1.842-4.641 13.941-11.873 17.9-13.691s8.867-3.187 10.379-7.269c1.01-2.727.133-6.023 1.685-8.482 2.519-3.991 8.835-2.531 12.883-4.958 5.14-3.082 5.317-11.576 10.846-13.89 1.917-.8 4.14-.654 6.027-1.524 2.487-1.145 3.881-3.787 4.978-6.3 5.1-11.661 3.886-20.305 13.215-28.962 5.7-5.292 14.772-4.879 22.7-18.718a55.686 55.686 0 0 1 9.633-12.523c4.806-4.611 11.5-6.617 17.055-10.285 6.978-4.607 6.645-9.023 7.85-16.008.276-1.6 2.082-3.238 2.233-4.431.389-3.128-2.22-6.937-3.505-9.844z" transform="translate(-1408.035 -298.742)"/>
    </g>
</svg>
