<svg xmlns="http://www.w3.org/2000/svg" width="281.832" height="315" viewBox="0 0 281.832 315">
    <defs>
        <filter id="spv9m9i06a" width="281.832" height="168.055" x="0" y="73" filterUnits="userSpaceOnUse">
            <feOffset/>
            <feGaussianBlur result="blur" stdDeviation="15"/>
            <feFlood flood-opacity=".302"/>
            <feComposite in2="blur" operator="in"/>
            <feComposite in="SourceGraphic"/>
        </filter>
    </defs>
    <g>
        <path fill="none" d="M0 0H215V315H0z" transform="translate(-779.579 -2236) translate(813 2236)"/>
        <g filter="url(#spv9m9i06a)" transform="translate(-779.579 -2236) translate(779.58 2236)">
            <path fill="#d5c5b0" d="M701.645 509.082c7.843 10.841 15.982 6.22 21.682 7.842 4.719 1.343 6.013 6.076 9.63 8.285 5.849 3.571 15.887 4.554 23.44 2.3 2.946-.881 5.561-2.2 8.783-2.658a20.258 20.258 0 0 1 11.4 1.9c3.9 1.959 8.058 5.175 12.787 3.98a4.566 4.566 0 0 0 3.822-4.686c-.079-1.834-.854-3.708-.013-5.477a1.91 1.91 0 0 1 1.023-1.005 5.629 5.629 0 0 1 2.788-.1 23.354 23.354 0 0 1 10.874 4.28c1.625 1.294 2.761 2.781 4.46 4.044 4.638 3.446 12.669 4.688 20.2 5.016a66.136 66.136 0 0 1 9.622.762c3.077.6 5.966 1.926 6.683 3.76 6.533-4.786 18.972-6.488 28.514-3.9a45.643 45.643 0 0 0 6.745 1.7c2.411.287 5.331-.144 6.377-1.433 1.819-2.242-2.967-4.248-6.677-5.481-11.941-3.968-20.734-5.951-22.129-13.883-.8-4.522 3.571-9.809.544-15.128-4.116-7.231-10.706-5.148-15.482-17.131-1.191-2.991-2.307-6.352-4.657-9.1-3.175-3.719-8.484-3.858-14.407-6.19-5.684-2.239-12.239-8.366-18.911-7.407-4.925.708-10.1 4.08-13.3 6.362-3.918 2.8-8.91 8.9-15.593 9.674-8.9 1.031-12.258-5.967-19.254-5.739a20.756 20.756 0 0 0-3.5.648c-4.216.854-8.895-.143-12.676-1.521s-6.9-4.781-11.055-5.73-9.822.81-12.613 2.829c-1.635 1.182-3.6 3.384-3.976 4.883-1.388 5.531.783 10.1-.605 15.634-.37 1.476-2.788 3.323-4.028 4.63-1.8 1.9-5.417 3.178-9.16 3.237-6.144.098-3.946 11.198-1.338 14.803z" transform="translate(-654.02 -341.27)"/>
        </g>
    </g>
</svg>
