<svg xmlns="http://www.w3.org/2000/svg" id="pix" width="39.006" height="28.686" viewBox="0 0 39.006 28.686">
    <defs>
        <style>
            .cls-1{fill:#f99130}
        </style>
    </defs>
    <path id="Path_40" d="M208.256 82.7a2.423 2.423 0 0 1-1.725-.715l-.3-.3-2.923 2.923 3.824 3.824-1.2 1.2a1.166 1.166 0 1 0 1.648 1.648l1.2-1.2 3.824 3.825 2.923-2.923-.3-.3a2.44 2.44 0 1 1 3.451-3.451l.3.3 2.923-2.923-3.824-3.824 1.2-1.2a1.166 1.166 0 1 0-1.648-1.648l-1.2 1.2-3.824-3.824-2.923 2.923.3.3a2.44 2.44 0 0 1-1.725 4.166z" class="cls-1" transform="translate(-193.186 -75.312)"/>
    <path id="Path_41" d="M90.983 209.686l-.3.3a2.44 2.44 0 1 1-3.451-3.451l.3-.3-2.923-2.923-3.824 3.824-1.2-1.2a1.166 1.166 0 1 0-1.648 1.648l1.2 1.2-3.824 3.824 9.3 9.3 9.3-9.3z" class="cls-1" transform="translate(-75.312 -193.221)"/>
    <path id="Path_42" d="M339.686 218.983l.3-.3a2.44 2.44 0 1 0-3.451-3.451l-.3.3-2.923-2.923 3.824-3.824-1.2-1.2a1.166 1.166 0 1 1 1.648-1.648l1.2 1.2 3.824-3.824 9.3 9.3-9.3 9.3z" class="cls-1" transform="translate(-312.901 -193.221)"/>
</svg>
